<svg xmlns="http://www.w3.org/2000/svg" xmlns:xlink="http://www.w3.org/1999/xlink" version="1.1" width="256" height="256" viewBox="0 0 256 256" xml:space="preserve">
<g style="stroke: none; stroke-width: 0; stroke-dasharray: none; stroke-linecap: butt; stroke-linejoin: miter; stroke-miterlimit: 10; fill: none; fill-rule: nonzero; opacity: 1;" transform="translate(1.4065934065934016 1.4065934065934016) scale(2.81 2.81)">
	<circle cx="45" cy="45" r="45" style="stroke: none; stroke-width: 1; stroke-dasharray: none; stroke-linecap: butt; stroke-linejoin: miter; stroke-miterlimit: 10; fill: rgb(0,169,174); fill-rule: nonzero; opacity: 1;" transform="  matrix(1 0 0 1 0 0) "/>
	<path d="M 47.76 83.322 c -0.336 0 -0.672 -0.084 -0.975 -0.254 c -4.449 -2.482 -10.749 -7.229 -16.211 -12.201 h -3.521 v 4.396 c 0 1.423 -1.157 2.58 -2.579 2.58 h -4.887 c -0.687 0 -1.333 -0.268 -1.821 -0.752 c -0.492 -0.494 -0.759 -1.142 -0.759 -1.828 v -0.136 h -2.771 c -1.422 0 -2.579 -1.157 -2.579 -2.579 v -1.681 h -0.641 c -1.422 0 -2.579 -1.157 -2.579 -2.579 v -4.977 c 0 -1.422 1.157 -2.579 2.579 -2.579 h 0.641 v -1.681 c 0 -1.422 1.157 -2.579 2.579 -2.579 h 2.771 v -1.09 c 0 -0.55 0.173 -1.061 0.468 -1.479 c -0.496 -1.064 -0.942 -2.132 -1.335 -3.195 h -3.825 c -1.93 0 -3.5 -1.57 -3.5 -3.5 s 1.57 -3.5 3.5 -3.5 h 1.979 c -0.347 -2.282 -0.419 -4.487 -0.214 -6.58 l 0.016 -0.2 c 0.017 -0.216 0.035 -0.433 0.064 -0.644 c 0.5 -3.67 1.873 -6.796 4.078 -9.288 c 3.437 -3.882 8.263 -6.122 13.59 -6.307 c 5.604 -0.186 11.196 1.934 15.933 6.023 c 4.736 -4.089 10.335 -6.223 15.932 -6.023 c 5.327 0.184 10.153 2.424 13.591 6.307 c 2.205 2.492 3.577 5.618 4.078 9.29 c 0.028 0.207 0.046 0.417 0.062 0.626 l 0.019 0.226 c 0.781 8.02 -2.626 17.766 -9.115 26.074 c -4.767 6.101 -16.231 15.751 -23.591 19.856 C 48.432 83.237 48.096 83.322 47.76 83.322 z" style="stroke: none; stroke-width: 1; stroke-dasharray: none; stroke-linecap: butt; stroke-linejoin: miter; stroke-miterlimit: 10; fill: rgb(0,156,161); fill-rule: nonzero; opacity: 1;" transform=" matrix(1 0 0 1 0 0) " stroke-linecap="round"/>
	<path d="M 75.784 24.322 c -6.427 -7.26 -18.599 -8.161 -28.025 1.11 c -9.426 -9.271 -21.598 -8.37 -28.025 -1.11 c -1.995 2.254 -3.164 5.079 -3.594 8.235 c -1.044 7.657 3.256 17.266 9.629 25.423 c 4.562 5.84 14.832 13.348 21.99 17.342 c 7.158 -3.993 17.428 -11.502 21.99 -17.342 c 6.373 -8.158 10.673 -17.766 9.629 -25.423 C 78.948 29.401 77.78 26.577 75.784 24.322 z" style="stroke: none; stroke-width: 1; stroke-dasharray: none; stroke-linecap: butt; stroke-linejoin: miter; stroke-miterlimit: 10; fill: rgb(234,87,87); fill-rule: nonzero; opacity: 1;" transform=" matrix(1 0 0 1 0 0) " stroke-linecap="round"/>
	<path d="M 70.749 51.98 c -4.562 5.839 -15.832 15.348 -22.99 19.342 c -7.158 -3.993 -18.428 -13.502 -22.99 -19.342 c -4.794 -6.136 -7.848 -13.093 -8.623 -19.422 c -1.045 7.657 2.25 17.264 8.623 25.422 c 4.562 5.839 15.832 15.348 22.99 19.342 c 7.158 -3.993 18.428 -13.502 22.99 -19.342 c 6.373 -8.158 9.668 -17.765 8.623 -25.422 C 78.597 38.888 75.543 45.845 70.749 51.98 z" style="stroke: none; stroke-width: 1; stroke-dasharray: none; stroke-linecap: butt; stroke-linejoin: miter; stroke-miterlimit: 10; fill: rgb(219,83,83); fill-rule: nonzero; opacity: 1;" transform=" matrix(1 0 0 1 0 0) " stroke-linecap="round"/>
	<path d="M 55.867 58.732 h -0.682 h -1.959 h -42.21 c -0.32 0 -0.579 0.259 -0.579 0.579 v 4.977 c 0 0.32 0.259 0.579 0.579 0.579 h 42.21 h 1.959 h 0.681 c 0.32 0 0.579 -0.259 0.579 -0.579 v -4.977 C 56.446 58.992 56.187 58.732 55.867 58.732 z" style="stroke: none; stroke-width: 1; stroke-dasharray: none; stroke-linecap: butt; stroke-linejoin: miter; stroke-miterlimit: 10; fill: rgb(226,226,226); fill-rule: nonzero; opacity: 1;" transform=" matrix(1 0 0 1 0 0) " stroke-linecap="round"/>
	<path d="M 55.867 62.255 h -0.681 h -1.959 h -42.21 c -0.32 0 -0.579 -0.259 -0.579 -0.579 v 2.613 c 0 0.32 0.259 0.579 0.579 0.579 h 42.21 h 1.959 h 0.681 c 0.32 0 0.579 -0.259 0.579 -0.579 v -2.613 C 56.446 61.995 56.187 62.255 55.867 62.255 z" style="stroke: none; stroke-width: 1; stroke-dasharray: none; stroke-linecap: butt; stroke-linejoin: miter; stroke-miterlimit: 10; fill: rgb(204,204,204); fill-rule: nonzero; opacity: 1;" transform=" matrix(1 0 0 1 0 0) " stroke-linecap="round"/>
	<path d="M 24.473 71.842 h -4.887 c -0.32 0 -0.579 -0.259 -0.579 -0.579 v -19.88 c 0 -0.32 0.259 -0.579 0.579 -0.579 h 4.887 c 0.32 0 0.579 0.259 0.579 0.579 v 19.88 C 25.052 71.583 24.793 71.842 24.473 71.842 z" style="stroke: none; stroke-width: 1; stroke-dasharray: none; stroke-linecap: butt; stroke-linejoin: miter; stroke-miterlimit: 10; fill: rgb(48,78,130); fill-rule: nonzero; opacity: 1;" transform=" matrix(1 0 0 1 0 0) " stroke-linecap="round"/>
	<path d="M 42.41 71.842 h 4.887 c 0.32 0 0.579 -0.259 0.579 -0.579 v -19.88 c 0 -0.32 -0.259 -0.579 -0.579 -0.579 H 42.41 c -0.32 0 -0.579 0.259 -0.579 0.579 v 19.88 C 41.83 71.583 42.09 71.842 42.41 71.842 z" style="stroke: none; stroke-width: 1; stroke-dasharray: none; stroke-linecap: butt; stroke-linejoin: miter; stroke-miterlimit: 10; fill: rgb(48,78,130); fill-rule: nonzero; opacity: 1;" transform=" matrix(1 0 0 1 0 0) " stroke-linecap="round"/>
	<path d="M 14.236 69.127 h 4.771 V 54.473 h -4.771 c -0.32 0 -0.579 0.259 -0.579 0.579 v 13.495 C 13.657 68.867 13.916 69.127 14.236 69.127 z" style="stroke: none; stroke-width: 1; stroke-dasharray: none; stroke-linecap: butt; stroke-linejoin: miter; stroke-miterlimit: 10; fill: rgb(52,96,143); fill-rule: nonzero; opacity: 1;" transform=" matrix(1 0 0 1 0 0) " stroke-linecap="round"/>
	<path d="M 52.647 69.127 h -4.771 V 54.473 h 4.771 c 0.32 0 0.579 0.259 0.579 0.579 v 13.495 C 53.226 68.867 52.966 69.127 52.647 69.127 z" style="stroke: none; stroke-width: 1; stroke-dasharray: none; stroke-linecap: butt; stroke-linejoin: miter; stroke-miterlimit: 10; fill: rgb(52,96,143); fill-rule: nonzero; opacity: 1;" transform=" matrix(1 0 0 1 0 0) " stroke-linecap="round"/>
	<path d="M 24.473 66.223 h -4.887 c -0.32 0 -0.579 -0.259 -0.579 -0.579 v 5.62 c 0 0.32 0.259 0.579 0.579 0.579 h 4.887 c 0.32 0 0.579 -0.259 0.579 -0.579 v -5.62 C 25.052 65.963 24.793 66.223 24.473 66.223 z" style="stroke: none; stroke-width: 1; stroke-dasharray: none; stroke-linecap: butt; stroke-linejoin: miter; stroke-miterlimit: 10; fill: rgb(43,69,114); fill-rule: nonzero; opacity: 1;" transform=" matrix(1 0 0 1 0 0) " stroke-linecap="round"/>
	<path d="M 47.297 66.223 H 42.41 c -0.32 0 -0.579 -0.259 -0.579 -0.579 v 5.62 c 0 0.32 0.259 0.579 0.579 0.579 h 4.887 c 0.32 0 0.579 -0.259 0.579 -0.579 v -5.62 C 47.876 65.963 47.617 66.223 47.297 66.223 z" style="stroke: none; stroke-width: 1; stroke-dasharray: none; stroke-linecap: butt; stroke-linejoin: miter; stroke-miterlimit: 10; fill: rgb(43,69,114); fill-rule: nonzero; opacity: 1;" transform=" matrix(1 0 0 1 0 0) " stroke-linecap="round"/>
	<path d="M 13.657 62.928 v 5.62 c 0 0.32 0.259 0.579 0.579 0.579 h 4.771 v -5.62 h -4.771 C 13.916 63.507 13.657 63.248 13.657 62.928 z" style="stroke: none; stroke-width: 1; stroke-dasharray: none; stroke-linecap: butt; stroke-linejoin: miter; stroke-miterlimit: 10; fill: rgb(47,89,127); fill-rule: nonzero; opacity: 1;" transform=" matrix(1 0 0 1 0 0) " stroke-linecap="round"/>
	<path d="M 52.647 63.507 h -4.771 v 5.62 h 4.771 c 0.32 0 0.579 -0.259 0.579 -0.579 v -5.62 C 53.226 63.248 52.966 63.507 52.647 63.507 z" style="stroke: none; stroke-width: 1; stroke-dasharray: none; stroke-linecap: butt; stroke-linejoin: miter; stroke-miterlimit: 10; fill: rgb(47,89,127); fill-rule: nonzero; opacity: 1;" transform=" matrix(1 0 0 1 0 0) " stroke-linecap="round"/>
	<path d="M 35.118 53.166 c -0.56 0 -1.074 -0.312 -1.332 -0.81 l -4.818 -9.3 l -1.763 3.375 c -0.259 0.495 -0.771 0.805 -1.33 0.805 h -5.56 c -0.829 0 -1.5 -0.671 -1.5 -1.5 s 0.671 -1.5 1.5 -1.5 h 4.651 l 2.677 -5.125 c 0.259 -0.495 0.771 -0.805 1.33 -0.805 c 0.001 0 0.001 0 0.002 0 c 0.56 0.001 1.072 0.313 1.33 0.81 l 4.777 9.22 l 8.282 -16.865 c 0.266 -0.543 0.836 -0.881 1.436 -0.836 c 0.604 0.036 1.126 0.431 1.326 1.001 l 4.529 12.939 l 9.827 -0.079 c 0.795 -0.028 1.505 0.659 1.512 1.488 s -0.659 1.505 -1.488 1.512 l -10.9 0.087 c -0.65 -0.025 -1.216 -0.399 -1.428 -1.004 l -3.7 -10.571 l -8.014 16.318 c -0.25 0.508 -0.764 0.833 -1.33 0.839 C 35.129 53.166 35.124 53.166 35.118 53.166 z" style="stroke: none; stroke-width: 1; stroke-dasharray: none; stroke-linecap: butt; stroke-linejoin: miter; stroke-miterlimit: 10; fill: rgb(219,83,83); fill-rule: nonzero; opacity: 1;" transform=" matrix(1 0 0 1 0 0) " stroke-linecap="round"/>
	<path d="M 35.118 50.639 c -0.56 0 -1.074 -0.312 -1.332 -0.81 l -4.818 -9.3 l -1.763 3.375 c -0.259 0.495 -0.771 0.805 -1.33 0.805 h -13.56 c -0.829 0 -1.5 -0.671 -1.5 -1.5 s 0.671 -1.5 1.5 -1.5 h 12.651 l 2.677 -5.125 c 0.259 -0.495 0.771 -0.805 1.33 -0.805 c 0.001 0 0.001 0 0.002 0 c 0.56 0.001 1.072 0.313 1.33 0.81 l 4.777 9.22 l 8.282 -16.865 c 0.266 -0.543 0.836 -0.881 1.436 -0.836 c 0.604 0.036 1.126 0.431 1.326 1.001 l 4.529 12.939 l 9.827 -0.079 c 0.795 -0.028 1.505 0.659 1.512 1.488 s -0.659 1.505 -1.488 1.512 l -10.9 0.087 c -0.65 -0.025 -1.216 -0.399 -1.428 -1.004 l -3.7 -10.571 L 36.464 49.8 c -0.25 0.508 -0.764 0.833 -1.33 0.839 C 35.129 50.639 35.124 50.639 35.118 50.639 z" style="stroke: none; stroke-width: 1; stroke-dasharray: none; stroke-linecap: butt; stroke-linejoin: miter; stroke-miterlimit: 10; fill: rgb(226,226,226); fill-rule: nonzero; opacity: 1;" transform=" matrix(1 0 0 1 0 0) " stroke-linecap="round"/>
</g>
</svg>